<svg width="67" height="53" viewBox="0 0 67 53" fill="none" xmlns="http://www.w3.org/2000/svg">
<rect width="66.75" height="52.5" fill="black"/>
<path d="M63.2271 0H3.52292C1.57726 0 0 1.87854 0 4.19583V4.6375C0 6.9548 1.57726 8.83333 3.52292 8.83333H63.2271C65.1727 8.83333 66.75 6.9548 66.75 4.6375V4.19583C66.75 1.87854 65.1727 0 63.2271 0Z" fill="#FD8719"/>
<path d="M63.2271 21.8333H3.52292C1.57726 21.8333 0 23.7119 0 26.0291V26.4708C0 28.7881 1.57726 30.6666 3.52292 30.6666H63.2271C65.1727 30.6666 66.75 28.7881 66.75 26.4708V26.0291C66.75 23.7119 65.1727 21.8333 63.2271 21.8333Z" fill="#FD8719"/>
<path d="M63.2271 43.6667H3.52292C1.57726 43.6667 0 45.5452 0 47.8625V48.3042C0 50.6215 1.57726 52.5 3.52292 52.5H63.2271C65.1727 52.5 66.75 50.6215 66.75 48.3042V47.8625C66.75 45.5452 65.1727 43.6667 63.2271 43.6667Z" fill="#FD8719"/>
</svg>
