<svg width="49" height="67" viewBox="0 0 49 67" fill="none" xmlns="http://www.w3.org/2000/svg">
<mask id="path-1-outside-1_51_61" maskUnits="userSpaceOnUse" x="-3" y="-3" width="55" height="73" fill="black">
<rect fill="white" x="-3" y="-3" width="55" height="73"/>
<path d="M15.7125 33.075C15.7125 35.675 16.8609 36.975 19.1575 36.975C21.6709 36.975 23.9025 35.4583 25.8525 32.425C26.3725 30.1283 27.3475 26.1417 28.7775 20.465C30.2509 14.7883 31.1175 11.3 31.3775 10C31.9409 7.44333 32.5692 5.40666 33.2625 3.89C33.9992 2.37333 34.9092 1.615 35.9925 1.615C37.9859 1.615 39.5025 2.07 40.5425 2.98C41.6259 3.84667 42.1675 5.45 42.1675 7.79C42.1675 10.0867 41.3875 12.6867 39.8275 15.59C39.5675 17.15 39.2859 18.775 38.9825 20.465C38.6792 22.155 38.2892 24.365 37.8125 27.095C37.3359 29.825 36.4475 34.4617 35.1475 41.005C40.2609 38.925 43.3809 37.2133 44.5075 35.87C45.6775 34.5267 46.5875 33.855 47.2375 33.855C47.8875 33.855 48.2125 34.5267 48.2125 35.87C48.2125 37.2133 47.8009 38.3833 46.9775 39.38C46.1975 40.3767 44.9409 41.5033 43.2075 42.76C41.5175 44.0167 38.3975 45.62 33.8475 47.57C31.5942 57.19 27.4775 63.2567 21.4975 65.77C19.8509 66.4633 18.1175 66.81 16.2975 66.81C12.3975 66.81 9.29919 66.0733 7.00252 64.6C4.35919 62.9533 3.03752 60.505 3.03752 57.255C3.03752 54.3517 7.37085 51.275 16.0375 48.025C20.3709 46.4217 22.9925 45.49 23.9025 45.23C23.9025 44.19 24.0109 42.8467 24.2275 41.2C21.5409 42.7167 18.5942 43.475 15.3875 43.475C12.2242 43.475 9.84085 42.5217 8.23752 40.615C6.63419 38.665 5.83252 36 5.83252 32.62C5.83252 31.0167 6.09252 29.305 6.61252 27.485C7.17585 25.665 7.78252 23.8233 8.43252 21.96C9.12585 20.0533 9.73252 18.19 10.2525 16.37C10.8159 14.55 11.0975 12.86 11.0975 11.3C11.0975 8.39667 10.2092 6.945 8.43252 6.945C7.82585 6.945 7.26252 7.11833 6.74252 7.465C6.26585 7.81166 5.76752 8.18 5.24752 8.57C4.77085 8.96 4.27252 9.32833 3.75252 9.675C3.23252 10.0217 2.62585 10.195 1.93252 10.195C1.28252 10.195 0.95752 9.61 0.95752 8.44C0.95752 6.05667 2.06252 4.10666 4.27252 2.59C6.39585 1.03 8.93085 0.249996 11.8775 0.249996C14.8242 0.249996 17.0342 1.33333 18.5075 3.5C19.6342 5.10333 20.1975 6.92333 20.1975 8.96C20.1975 10.9967 19.9592 12.9683 19.4825 14.875C19.0059 16.7383 18.4859 18.6667 17.9225 20.66C17.4025 22.6533 16.9042 24.69 16.4275 26.77C15.9509 28.8067 15.7125 30.9083 15.7125 33.075ZM18.0525 60.96C19.7859 59.53 21.2592 56.4967 22.4725 51.86C20.1759 52.6833 18.2259 53.355 16.6225 53.875C15.0192 54.395 13.6975 54.8717 12.6575 55.305C11.6175 55.7383 10.8592 56.15 10.3825 56.54C9.90585 56.9733 9.66752 57.4717 9.66752 58.035C9.66752 59.1183 10.3175 60.0067 11.6175 60.7C12.9175 61.3933 14.1525 61.74 15.3225 61.74C16.4925 61.7833 17.4025 61.5233 18.0525 60.96Z"/>
</mask>
<path d="M15.7125 33.075C15.7125 35.675 16.8609 36.975 19.1575 36.975C21.6709 36.975 23.9025 35.4583 25.8525 32.425C26.3725 30.1283 27.3475 26.1417 28.7775 20.465C30.2509 14.7883 31.1175 11.3 31.3775 10C31.9409 7.44333 32.5692 5.40666 33.2625 3.89C33.9992 2.37333 34.9092 1.615 35.9925 1.615C37.9859 1.615 39.5025 2.07 40.5425 2.98C41.6259 3.84667 42.1675 5.45 42.1675 7.79C42.1675 10.0867 41.3875 12.6867 39.8275 15.59C39.5675 17.15 39.2859 18.775 38.9825 20.465C38.6792 22.155 38.2892 24.365 37.8125 27.095C37.3359 29.825 36.4475 34.4617 35.1475 41.005C40.2609 38.925 43.3809 37.2133 44.5075 35.87C45.6775 34.5267 46.5875 33.855 47.2375 33.855C47.8875 33.855 48.2125 34.5267 48.2125 35.87C48.2125 37.2133 47.8009 38.3833 46.9775 39.38C46.1975 40.3767 44.9409 41.5033 43.2075 42.76C41.5175 44.0167 38.3975 45.62 33.8475 47.57C31.5942 57.19 27.4775 63.2567 21.4975 65.77C19.8509 66.4633 18.1175 66.81 16.2975 66.81C12.3975 66.81 9.29919 66.0733 7.00252 64.6C4.35919 62.9533 3.03752 60.505 3.03752 57.255C3.03752 54.3517 7.37085 51.275 16.0375 48.025C20.3709 46.4217 22.9925 45.49 23.9025 45.23C23.9025 44.19 24.0109 42.8467 24.2275 41.2C21.5409 42.7167 18.5942 43.475 15.3875 43.475C12.2242 43.475 9.84085 42.5217 8.23752 40.615C6.63419 38.665 5.83252 36 5.83252 32.62C5.83252 31.0167 6.09252 29.305 6.61252 27.485C7.17585 25.665 7.78252 23.8233 8.43252 21.96C9.12585 20.0533 9.73252 18.19 10.2525 16.37C10.8159 14.55 11.0975 12.86 11.0975 11.3C11.0975 8.39667 10.2092 6.945 8.43252 6.945C7.82585 6.945 7.26252 7.11833 6.74252 7.465C6.26585 7.81166 5.76752 8.18 5.24752 8.57C4.77085 8.96 4.27252 9.32833 3.75252 9.675C3.23252 10.0217 2.62585 10.195 1.93252 10.195C1.28252 10.195 0.95752 9.61 0.95752 8.44C0.95752 6.05667 2.06252 4.10666 4.27252 2.59C6.39585 1.03 8.93085 0.249996 11.8775 0.249996C14.8242 0.249996 17.0342 1.33333 18.5075 3.5C19.6342 5.10333 20.1975 6.92333 20.1975 8.96C20.1975 10.9967 19.9592 12.9683 19.4825 14.875C19.0059 16.7383 18.4859 18.6667 17.9225 20.66C17.4025 22.6533 16.9042 24.69 16.4275 26.77C15.9509 28.8067 15.7125 30.9083 15.7125 33.075ZM18.0525 60.96C19.7859 59.53 21.2592 56.4967 22.4725 51.86C20.1759 52.6833 18.2259 53.355 16.6225 53.875C15.0192 54.395 13.6975 54.8717 12.6575 55.305C11.6175 55.7383 10.8592 56.15 10.3825 56.54C9.90585 56.9733 9.66752 57.4717 9.66752 58.035C9.66752 59.1183 10.3175 60.0067 11.6175 60.7C12.9175 61.3933 14.1525 61.74 15.3225 61.74C16.4925 61.7833 17.4025 61.5233 18.0525 60.96Z" fill="#FFE6C1"/>
<path d="M25.8525 32.425L28.3761 34.0473L28.6618 33.6028L28.7785 33.0875L25.8525 32.425ZM28.7775 20.465L25.8737 19.7113L25.871 19.7217L25.8684 19.7322L28.7775 20.465ZM31.3775 10L28.4478 9.35447L28.4415 9.383L28.4358 9.41165L31.3775 10ZM33.2625 3.89L30.564 2.57929L30.5487 2.61083L30.5341 2.64272L33.2625 3.89ZM40.5425 2.98L38.567 5.23773L38.6168 5.28129L38.6684 5.32261L40.5425 2.98ZM39.8275 15.59L37.1848 14.1701L36.9499 14.6072L36.8683 15.0968L39.8275 15.59ZM38.9825 20.465L41.9353 20.995V20.995L38.9825 20.465ZM35.1475 41.005L32.205 40.4204L31.1199 45.882L36.2779 43.7839L35.1475 41.005ZM44.5075 35.87L42.2453 33.8997L42.2269 33.9207L42.2089 33.9422L44.5075 35.87ZM46.9775 39.38L44.6646 37.4694L44.6394 37.4999L44.615 37.5311L46.9775 39.38ZM43.2075 42.76L41.4466 40.3312L41.432 40.3418L41.4174 40.3526L43.2075 42.76ZM33.8475 47.57L32.6658 44.8126L31.2723 45.4098L30.9266 46.8858L33.8475 47.57ZM21.4975 65.77L20.3351 63.0043L20.3333 63.0051L21.4975 65.77ZM7.00252 64.6L8.62238 62.0749L8.60564 62.0642L8.58876 62.0537L7.00252 64.6ZM16.0375 48.025L14.9965 45.2114L14.9841 45.216L16.0375 48.025ZM23.9025 45.23L24.7267 48.1146L26.9025 47.4929V45.23H23.9025ZM24.2275 41.2L27.2019 41.5914L27.9858 35.6334L22.7527 38.5875L24.2275 41.2ZM8.23752 40.615L5.92024 42.5203L5.93077 42.5331L5.94143 42.5458L8.23752 40.615ZM6.61252 27.485L3.74666 26.5979L3.73696 26.6293L3.72795 26.6608L6.61252 27.485ZM8.43252 21.96L5.61314 20.9348L5.60641 20.9533L5.59992 20.9719L8.43252 21.96ZM10.2525 16.37L7.38666 15.4829L7.37696 15.5143L7.36795 15.5458L10.2525 16.37ZM6.74252 7.465L5.07843 4.96884L5.0275 5.00279L4.978 5.03879L6.74252 7.465ZM5.24752 8.57L3.44752 6.17L3.39684 6.20801L3.34781 6.24813L5.24752 8.57ZM3.75252 9.675L2.08842 7.17885L3.75252 9.675ZM4.27252 2.59L5.97005 5.06354L6.00985 5.03622L6.04875 5.00764L4.27252 2.59ZM18.5075 3.5L16.0267 5.18693L16.0397 5.20598L16.0529 5.22483L18.5075 3.5ZM19.4825 14.875L22.3889 15.6185L22.391 15.6106L22.3929 15.6026L19.4825 14.875ZM17.9225 20.66L15.0356 19.8441L15.0273 19.8733L15.0197 19.9027L17.9225 20.66ZM16.4275 26.77L19.3486 27.4537L19.3517 27.4401L16.4275 26.77ZM18.0525 60.96L16.1434 58.6459L16.1153 58.6691L16.0877 58.6929L18.0525 60.96ZM22.4725 51.86L25.3748 52.6195L26.8149 47.1164L21.4601 49.036L22.4725 51.86ZM16.6225 53.875L15.697 51.0213L16.6225 53.875ZM12.6575 55.305L11.5037 52.5358L12.6575 55.305ZM10.3825 56.54L8.48281 54.2181L8.42233 54.2676L8.3645 54.3202L10.3825 56.54ZM15.3225 61.74L15.4336 58.7421L15.3781 58.74H15.3225V61.74ZM12.7125 33.075C12.7125 34.7522 13.0748 36.5704 14.3254 37.9861C15.6386 39.4728 17.4436 39.975 19.1575 39.975V33.975C18.859 33.975 18.7294 33.932 18.7095 33.9244C18.7073 33.9236 18.7658 33.95 18.8222 34.0139C18.9244 34.1296 18.7125 33.9978 18.7125 33.075H12.7125ZM19.1575 39.975C23.0944 39.975 26.1345 37.5342 28.3761 34.0473L23.329 30.8027C21.6706 33.3825 20.2473 33.975 19.1575 33.975V39.975ZM28.7785 33.0875C29.2896 30.8301 30.2564 26.8753 31.6866 21.1978L25.8684 19.7322C24.4386 25.408 23.4555 29.4266 22.9266 31.7625L28.7785 33.0875ZM31.6813 21.2187C33.1452 15.5782 34.0386 11.9917 34.3193 10.5883L28.4358 9.41165C28.1965 10.6083 27.3565 13.9985 25.8737 19.7113L31.6813 21.2187ZM34.3072 10.6455C34.8476 8.19311 35.4209 6.38435 35.9909 5.13728L30.5341 2.64272C29.7175 4.42898 29.0341 6.69355 28.4478 9.35447L34.3072 10.6455ZM35.961 5.20071C36.0836 4.94838 36.1921 4.77197 36.2777 4.65369C36.3633 4.53549 36.4141 4.49174 36.4181 4.48841C36.4186 4.48797 36.3727 4.52556 36.2792 4.56113C36.1822 4.59805 36.0803 4.615 35.9925 4.615V-1.385C33.1924 -1.385 31.494 0.664465 30.564 2.57929L35.961 5.20071ZM35.9925 4.615C37.5756 4.615 38.2725 4.98003 38.567 5.23773L42.518 0.722271C40.7325 -0.840034 38.3961 -1.385 35.9925 -1.385V4.615ZM38.6684 5.32261C38.6714 5.32497 39.1675 5.75136 39.1675 7.79H45.1675C45.1675 5.14864 44.5803 2.36836 42.4166 0.637394L38.6684 5.32261ZM39.1675 7.79C39.1675 9.42238 38.6058 11.5255 37.1848 14.1701L42.4702 17.0099C44.1692 13.8478 45.1675 10.751 45.1675 7.79H39.1675ZM36.8683 15.0968C36.6105 16.6435 36.331 18.2562 36.0297 19.935L41.9353 20.995C42.2407 19.2938 42.5245 17.6565 42.7867 16.0832L36.8683 15.0968ZM36.0297 19.935C35.7252 21.6316 35.3343 23.8468 34.8572 26.579L40.7678 27.611C41.2441 24.8832 41.6332 22.6784 41.9353 20.995L36.0297 19.935ZM34.8572 26.579C34.3872 29.2711 33.505 33.8771 32.205 40.4204L38.09 41.5896C39.39 35.0462 40.2845 30.3789 40.7678 27.611L34.8572 26.579ZM36.2779 43.7839C38.8902 42.7213 41.0651 41.7243 42.7655 40.7914C44.386 39.9024 45.8653 38.9195 46.8061 37.7978L42.2089 33.9422C42.023 34.1638 41.379 34.7084 39.8796 35.5311C38.4599 36.3099 36.5182 37.2087 34.0171 38.2261L36.2779 43.7839ZM46.7698 37.8403C47.2831 37.251 47.6404 36.9265 47.8491 36.7725C47.9488 36.6989 47.9597 36.7053 47.8876 36.7364C47.8175 36.7666 47.5874 36.855 47.2375 36.855V30.855C45.9487 30.855 44.9165 31.4796 44.286 31.945C43.5847 32.4627 42.902 33.1457 42.2453 33.8997L46.7698 37.8403ZM47.2375 36.855C46.8545 36.855 46.3898 36.7461 45.9622 36.4515C45.5582 36.1732 45.3554 35.8455 45.2683 35.6654C45.1858 35.4949 45.1798 35.404 45.1899 35.4661C45.1985 35.5197 45.2125 35.6473 45.2125 35.87H51.2125C51.2125 35.0523 51.129 34.0023 50.6693 33.0521C50.4196 32.5362 50.0137 31.9566 49.366 31.5104C48.6946 31.0479 47.9456 30.855 47.2375 30.855V36.855ZM45.2125 35.87C45.2125 36.5456 45.0253 37.0327 44.6646 37.4694L49.2904 41.2906C50.5764 39.7339 51.2125 37.8811 51.2125 35.87H45.2125ZM44.615 37.5311C44.0859 38.2072 43.0866 39.1422 41.4466 40.3312L44.9684 45.1888C46.7951 43.8645 48.3092 42.5461 49.34 41.2289L44.615 37.5311ZM41.4174 40.3526C40.0382 41.3782 37.2109 42.8646 32.6658 44.8126L35.0293 50.3274C39.5841 48.3754 42.9968 46.6552 44.9976 45.1674L41.4174 40.3526ZM30.9266 46.8858C28.7736 56.0774 25.0394 61.0272 20.3351 63.0043L22.6599 68.5357C29.9156 65.4862 34.4148 58.3026 36.7685 48.2542L30.9266 46.8858ZM20.3333 63.0051C19.0622 63.5403 17.7253 63.81 16.2975 63.81V69.81C18.5097 69.81 20.6395 69.3863 22.6617 68.5349L20.3333 63.0051ZM16.2975 63.81C12.7371 63.81 10.2702 63.132 8.62238 62.0749L5.38266 67.1251C8.32819 69.0147 12.058 69.81 16.2975 69.81V63.81ZM8.58876 62.0537C6.8702 60.9831 6.03752 59.5238 6.03752 57.255H0.0375195C0.0375195 61.4862 1.84817 64.9236 5.41628 67.1463L8.58876 62.0537ZM6.03752 57.255C6.03752 57.3512 6.01993 56.6392 8.02429 55.2161C9.87978 53.8988 12.8493 52.4246 17.0909 50.834L14.9841 45.216C10.559 46.8754 7.0286 48.5646 4.55075 50.3239C2.22178 51.9774 0.0375195 54.2554 0.0375195 57.255H6.03752ZM17.0785 50.8386C21.4659 49.2153 23.9546 48.3352 24.7267 48.1146L23.0784 42.3454C22.0304 42.6448 19.2758 43.6281 14.9965 45.2114L17.0785 50.8386ZM26.9025 45.23C26.9025 44.3743 26.9935 43.175 27.2019 41.5914L21.2532 40.8086C21.0282 42.5183 20.9025 44.0057 20.9025 45.23H26.9025ZM22.7527 38.5875C20.5342 39.8399 18.0986 40.475 15.3875 40.475V46.475C19.0898 46.475 22.5475 45.5934 25.7023 43.8125L22.7527 38.5875ZM15.3875 40.475C12.8515 40.475 11.4193 39.7375 10.5336 38.6842L5.94143 42.5458C8.26241 45.3059 11.5969 46.475 15.3875 46.475V40.475ZM10.5548 38.7097C9.52266 37.4544 8.83252 35.5412 8.83252 32.62H2.83252C2.83252 36.4588 3.74572 39.8756 5.92024 42.5203L10.5548 38.7097ZM8.83252 32.62C8.83252 31.3403 9.04027 29.908 9.49709 28.3092L3.72795 26.6608C3.14477 28.702 2.83252 30.693 2.83252 32.62H8.83252ZM9.47838 28.372C10.0309 26.5871 10.6264 24.7791 11.2651 22.9481L5.59992 20.9719C4.93865 22.8675 4.32085 24.7429 3.74666 26.5979L9.47838 28.372ZM11.2519 22.9852C11.9676 21.017 12.5964 19.0866 13.1371 17.1942L7.36795 15.5458C6.86863 17.2934 6.28409 19.0897 5.61314 20.9348L11.2519 22.9852ZM13.1184 17.257C13.7517 15.2109 14.0975 13.2186 14.0975 11.3H8.09752C8.09752 12.5014 7.87999 13.8891 7.38666 15.4829L13.1184 17.257ZM14.0975 11.3C14.0975 9.63995 13.8611 7.89101 12.9902 6.46785C11.9723 4.80453 10.3095 3.945 8.43252 3.945V9.945C8.4613 9.945 8.34037 9.94809 8.1634 9.85169C7.98056 9.7521 7.89067 9.62956 7.87237 9.59964C7.86626 9.58967 7.92999 9.69281 7.99149 9.99428C8.05222 10.292 8.09752 10.7181 8.09752 11.3H14.0975ZM8.43252 3.945C7.21492 3.945 6.07547 4.30415 5.07843 4.96884L8.40661 9.96115C8.42434 9.94933 8.43507 9.94387 8.43883 9.94207C8.44245 9.94033 8.44167 9.94098 8.43727 9.94234C8.43282 9.94371 8.42839 9.94465 8.42529 9.94511C8.42228 9.94555 8.4242 9.945 8.43252 9.945V3.945ZM4.978 5.03879C4.48831 5.39493 3.9781 5.77206 3.44752 6.17L7.04752 10.97C7.55693 10.5879 8.0434 10.2284 8.50704 9.8912L4.978 5.03879ZM3.34781 6.24813C2.9479 6.57533 2.52828 6.8856 2.08842 7.17885L5.41662 12.1711C6.01675 11.7711 6.59381 11.3447 7.14723 10.8919L3.34781 6.24813ZM2.08842 7.17885C2.087 7.1798 2.08755 7.17933 2.08909 7.17862C2.0906 7.17793 2.08928 7.17874 2.08335 7.18043C2.07307 7.18337 2.02771 7.195 1.93252 7.195V13.195C3.15081 13.195 4.35064 12.8818 5.41662 12.1711L2.08842 7.17885ZM1.93252 7.195C2.23432 7.195 2.64137 7.26799 3.04944 7.51283C3.45305 7.755 3.69499 8.06756 3.82374 8.29932C3.94286 8.51373 3.96827 8.66136 3.9683 8.66154C3.96947 8.66786 3.95752 8.60223 3.95752 8.44H-2.04248C-2.04248 9.20447 -1.95333 10.2554 -1.4212 11.2132C-1.12995 11.7374 -0.684883 12.2694 -0.0375309 12.6578C0.614298 13.0489 1.30572 13.195 1.93252 13.195V7.195ZM3.95752 8.44C3.95752 7.18091 4.45686 6.102 5.97005 5.06354L2.57499 0.116457C-0.331816 2.11133 -2.04248 4.93242 -2.04248 8.44H3.95752ZM6.04875 5.00764C7.59674 3.87035 9.49058 3.25 11.8775 3.25V-2.75C8.37112 -2.75 5.19497 -1.81035 2.49629 0.172352L6.04875 5.00764ZM11.8775 3.25C13.9754 3.25 15.1886 3.95439 16.0267 5.18693L20.9883 1.81307C18.8798 -1.28773 15.6729 -2.75 11.8775 -2.75V3.25ZM16.0529 5.22483C16.8101 6.30231 17.1975 7.51487 17.1975 8.96H23.1975C23.1975 6.33179 22.4583 3.90435 20.9621 1.77516L16.0529 5.22483ZM17.1975 8.96C17.1975 10.7603 16.9871 12.4872 16.5721 14.1474L22.3929 15.6026C22.9312 13.4495 23.1975 11.233 23.1975 8.96H17.1975ZM16.5761 14.1315C16.1061 15.9689 15.5926 17.873 15.0356 19.8441L20.8094 21.4759C21.3791 19.4603 21.9056 17.5078 22.3889 15.6185L16.5761 14.1315ZM15.0197 19.9027C14.4919 21.926 13.9864 23.9918 13.5033 26.0999L19.3517 27.4401C19.8219 25.3882 20.3132 23.3806 20.8254 21.4173L15.0197 19.9027ZM13.5065 26.0863C12.9755 28.355 12.7125 30.6864 12.7125 33.075H18.7125C18.7125 31.1302 18.9262 29.2583 19.3486 27.4537L13.5065 26.0863ZM19.9617 63.2741C22.4896 61.1886 24.1477 57.3088 25.3748 52.6195L19.5702 51.1005C18.3707 55.6845 17.0821 57.8714 16.1434 58.6459L19.9617 63.2741ZM21.4601 49.036C19.1808 49.8531 17.2616 50.5139 15.697 51.0213L17.548 56.7287C19.1901 56.1961 21.1709 55.5136 23.4849 54.684L21.4601 49.036ZM15.697 51.0213C14.0502 51.5554 12.6455 52.06 11.5037 52.5358L13.8114 58.0742C14.7496 57.6833 15.9881 57.2346 17.548 56.7287L15.697 51.0213ZM11.5037 52.5358C10.3782 53.0047 9.29962 53.5498 8.48281 54.2181L12.2822 58.8619C12.4188 58.7502 12.8568 58.472 13.8114 58.0742L11.5037 52.5358ZM8.3645 54.3202C7.36145 55.232 6.66752 56.5013 6.66752 58.035H12.6675C12.6675 58.1921 12.6307 58.37 12.5527 58.5331C12.479 58.6872 12.4023 58.7582 12.4005 58.7598L8.3645 54.3202ZM6.66752 58.035C6.66752 60.6191 8.33187 62.3476 10.2058 63.3471L13.0293 58.0529C12.649 57.8501 12.5605 57.7209 12.5761 57.7422C12.5877 57.7581 12.6157 57.8025 12.6386 57.8717C12.6615 57.9413 12.6675 58.0008 12.6675 58.035H6.66752ZM10.2058 63.3471C11.8299 64.2133 13.5486 64.74 15.3225 64.74V58.74C14.7564 58.74 14.0051 58.5734 13.0293 58.0529L10.2058 63.3471ZM15.2115 64.7379C16.8626 64.7991 18.6123 64.4448 20.0173 63.2271L16.0877 58.6929C16.1253 58.6604 16.1353 58.6709 16.0584 58.6929C15.9693 58.7184 15.7746 58.7547 15.4336 58.7421L15.2115 64.7379Z" fill="black" mask="url(#path-1-outside-1_51_61)"/>
</svg>
